<svg width="448" height="102" viewBox="0 0 448 102" fill="none" xmlns="http://www.w3.org/2000/svg">
<path d="M35.6429 19.0022L46.5755 38.6809L70.9431 82.5453H91.5331L56.8765 20.1441L45.9438 0.465271L35.6429 19.0022Z" fill="#f5f7fc"/><!-- was #161E2E before -->>
<path opacity="0.32" d="M35.6429 19.0022L46.5755 38.6809L70.9431 82.5453H91.5331L56.8765 20.1441L45.9438 0.465271L35.6429 19.0022Z" fill="url(#paint0_linear)"/>
<path d="M0.354614 82.5453H22.2199L46.5755 38.6809L56.8765 20.1441L45.9438 0.465271L35.6429 19.0022L0.354614 82.5453Z" fill="#7E3AF2"/>
<path d="M160.429 52.5062C160.429 69.2629 146.796 82.8952 130.039 82.8952C113.282 82.8952 99.6503 69.2629 99.6503 52.5062L99.6502 21.7862H115.205V52.5062C115.205 60.6865 121.859 67.3408 130.039 67.3408C138.219 67.3408 144.875 60.6865 144.875 52.5062V21.7862H160.429L160.429 52.5062Z" fill="#f5f7fc"/><!-- was #161E2E before -->>
<path d="M235.997 52.2511C235.997 52.2447 235.997 52.2383 235.997 52.2319V0.465271H220.219V25.0115C215.605 22.3497 210.261 20.8181 204.563 20.8181C187.231 20.8181 173.13 34.9191 173.13 52.2511C173.13 69.5844 187.231 83.6854 204.563 83.6854C211.291 83.6854 217.528 81.5536 222.646 77.9396V82.4716H235.997V52.2703C235.997 52.2639 235.997 52.2576 235.997 52.2511ZM204.563 67.9072C195.931 67.9072 188.908 60.8834 188.908 52.2511C188.908 43.6189 195.931 36.5963 204.563 36.5963C213.192 36.5963 220.214 43.6144 220.219 52.2429V52.2594C220.214 60.8878 213.192 67.9072 204.563 67.9072Z" fill="#f5f7fc"/><!-- was #161E2E before -->
<path d="M311.404 51.9344C311.404 34.7626 297.433 20.7919 280.261 20.7919C263.088 20.7919 249.118 34.7626 249.118 51.9344C249.118 69.1075 263.088 83.0781 280.261 83.0781C285.907 83.0781 291.201 81.5606 295.772 78.9234V82.5191H311.404V52.2255H311.397C311.398 52.1281 311.404 52.0321 311.404 51.9344ZM280.261 67.4459C271.709 67.4459 264.75 60.4869 264.75 51.9344C264.75 43.382 271.709 36.4243 280.261 36.4243C288.814 36.4243 295.772 43.382 295.772 51.9344C295.772 60.4869 288.814 67.4459 280.261 67.4459Z" fill="#f5f7fc"/><!-- was #161E2E before -->>
<path d="M342.438 82.5453H326.646V0.465271H342.438V82.5453H342.438Z" fill="#f5f7fc"/><!-- was #161E2E before -->>
<path d="M373.218 82.5453H357.426V0.465271H373.218V82.5453H373.218Z" fill="#f5f7fc"/><!-- was #161E2E before -->>
<path d="M430.159 21.7862L415.918 54.6028L401.324 21.7862L383.584 21.7862L407.157 74.7918L395.629 101.356H413.368L447.899 21.7862L430.159 21.7862Z" fill="#f5f7fc"/><!-- was #161E2E before -->
<defs>
<linearGradient id="paint0_linear" x1="77.0973" y1="57.265" x2="35.7846" y2="22.3619" gradientUnits="userSpaceOnUse">
<stop stop-opacity="0"/>
<stop offset="0.23462" stop-opacity="0.29264"/>
<stop offset="0.52244" stop-opacity="0.65165"/>
<stop offset="0.72155" stop-opacity="0.9"/>
</linearGradient>
</defs>
</svg>
